PathFileType	4	(X/Y/Z)	Patient4_TMGait_0pt4_03_right_25.trc.trc
DataRate	CameraRate	NumFrames	NumMarkers	Units	OrigDataRate	OrigDataStartFrame	OrigNumFrames
74.074074074074	74.074074074074	6	33	mm	74.074074074074	89	       141
Frame#	Time	Sacral			L.Shoulder			Chest			R.Shoulder			Neck			R.ASIS			L.ASIS			R.Thigh.Superior			R.Thigh.Lateral			R.Thigh.Inferior			R.Patella			L.Thigh.Superior			L.Thigh.Lateral			L.Thigh.Inferior			L.Patella			L.Shank.Superior			L.Shank.Lateral			L.Shank.Inferior			R.Shank.Superior			R.Shank.Lateral			R.Shank.Inferior			R.Heel			R.Midfoot.Superior			R.Midfoot.Lateral			R.Toe			L.Heel			L.Midfoot.Lateral			L.Midfoot.Superior			L.Toe			L.Elbow			L.Wrist			R.Elbow			R.Wrist			
		X1	Y1	Z1	X2	Y2	Z2	X3	Y3	Z3	X4	Y4	Z4	X5	Y5	Z5	X6	Y6	Z6	X7	Y7	Z7	X8	Y8	Z8	X9	Y9	Z9	X10	Y10	Z10	X11	Y11	Z11	X12	Y12	Z12	X13	Y13	Z13	X14	Y14	Z14	X15	Y15	Z15	X16	Y16	Z16	X17	Y17	Z17	X18	Y18	Z18	X19	Y19	Z19	X20	Y20	Z20	X21	Y21	Z21	X22	Y22	Z22	X23	Y23	Z23	X24	Y24	Z24	X25	Y25	Z25	X26	Y26	Z26	X27	Y27	Z27	X28	Y28	Z28	X29	Y29	Z29	X30	Y30	Z30	X31	Y31	Z31	X32	Y32	Z32	X33	Y33	Z33	

89	33.398000000000	843.282212638586	1004.750841384711	441.375704712471	999.760764735921	1429.956407052491	240.223597956557	1118.871896138227	1366.031569921167	391.608237547154	1052.162170869553	1440.667167415243	572.416372745615	994.927622293038	1494.509880988967	395.163327160307	1078.111779797235	941.824972139384	541.982817152329	1046.882363847754	958.239297729273	269.592062137723	1101.939514526993	733.085983677111	525.287537248472	1017.120954155427	630.515268509183	597.723350345083	1089.905842584851	566.108718094676	522.930394142121	1079.389837462287	462.923445748939	545.607716269375	1115.349997754514	761.320361282714	295.490613222572	1039.829776071239	636.695638183248	235.106931246869	1138.547178004704	569.931198318025	290.462824866906	1147.556109138899	499.851498332557	296.829927726012	1125.382582656082	425.669525882191	288.387688916785	1040.857543146491	306.370644497995	239.980927276922	1104.973055250168	197.088266451596	303.729716415050	1009.662623124335	392.322570180743	554.114345713382	897.876357465747	338.038194183542	619.763661509855	893.508748844135	228.673088020029	567.792774573730	699.596249592296	130.298249922116	548.744967819117	876.086476776478	109.152058389255	578.052238285198	773.214071004444	83.576584309931	617.015243409478	965.837240067954	34.213723558128	597.957162767360	989.200765750125	38.430003640471	349.929378631784	1058.036478611083	35.650788798490	264.888001594244	1142.275605774548	97.558880892464	287.640894423876	1268.991375170052	46.760899658775	250.672291244432	940.403409602064	1079.248880663395	131.932055727820	1018.055522721326	827.967790244395	118.441174234369	1091.268621273345	1098.112303782548	702.478264326826	1300.921806506811	947.724627629492	688.513364779494	
90	33.411500000000	842.747366897688	1004.875258418735	436.948411050770	1001.765914022584	1430.323544242861	236.361500228833	1119.197155143143	1366.273707516834	388.979119684342	1050.713580478734	1440.847673415033	569.156837563693	995.135886646988	1494.859074258044	391.210204053017	1077.112397537922	942.306331316344	539.170842844571	1047.700165890413	958.527971514804	266.636837296426	1107.003706231568	735.373570491028	522.949969296717	1025.423877509704	630.894700519800	595.622259580000	1100.707096870572	567.881023755124	521.385369087612	1091.577612161443	463.330074034618	544.923459078174	1114.685711819619	760.602125408754	292.161374384625	1038.050448664674	636.707940489401	232.186045995613	1135.858497247292	569.188638942914	287.913638521295	1144.235365055802	499.192031501762	294.485692524321	1121.826091858469	425.013674738994	286.342271993082	1036.851667229413	305.839989455193	238.123170907844	1100.251697061064	196.672154646571	302.849307235985	1019.864617413032	393.453780719249	553.325095829749	906.055598021136	343.248730316418	618.834943884741	898.618998295153	233.712888027473	567.876140935151	701.875488708997	144.077541649857	548.928044693009	876.794907541124	112.968461117542	578.345116641030	772.605510631796	93.122549223851	617.094391971344	961.240088963914	33.187700011585	598.167351128256	983.767130324005	38.383844755209	349.843967189788	1052.574812238417	35.514534669953	264.728403055429	1136.903210849057	97.333736939881	287.490659157325	1263.649108879676	46.364160169506	250.636329563841	947.921382868168	1079.612541834310	124.933789353477	1032.967553031426	830.816778173203	109.198035469842	1082.898231858781	1097.358763194953	699.108157021860	1282.798258756802	933.115010593629	687.909339709882	
91	33.425000000000	842.027745393219	1004.906761333855	432.665565535832	1003.782509813848	1430.528158960342	232.670305663137	1119.441644611147	1366.356372112388	386.573142404646	1049.123042561236	1440.899194355264	566.075963664537	995.352024279478	1495.089725279019	387.443440097841	1075.981975939168	942.708348871094	536.612762314283	1048.342996169707	958.760772549590	263.898606236741	1112.172628571769	737.982576734836	520.632782497828	1034.045595669086	631.524732723398	593.502284215418	1111.775999540168	570.112051965014	519.741209028872	1104.168101450886	464.267766108560	543.887276486716	1113.874387439602	759.918891014736	288.994216269391	1036.209880014236	636.735077330985	229.338096576416	1133.117625642937	568.475366337422	285.401722800258	1140.863564846966	498.547896323812	292.149942237720	1118.220855186640	424.372721481109	284.307874873906	1032.793140380391	305.325959685054	236.252325876875	1095.513588990502	196.275453536249	301.934721937083	1030.631251515438	394.989150115543	552.225917766297	915.051202917253	348.802445845796	617.740921935077	904.445163404924	239.264106599322	567.680807095578	705.304684434574	158.591824619786	548.877636943302	878.256471634001	117.598138253454	578.515809513540	772.950885318880	103.590342099400	617.018398310023	957.166124653757	32.212741752517	598.369611489079	978.349306779116	38.349690961753	349.740117128430	1047.130608800671	35.393647287414	264.553811331859	1131.539436888139	97.129819710281	287.315568127151	1258.315155468696	46.002320113993	250.588574528220	955.737510590029	1079.991377604466	117.969260035055	1048.091296537055	833.912149618528	100.122531445004	1074.213179922928	1096.515694698202	695.640909584877	1263.471641153541	919.172546514869	687.190537958018	
92	33.438500000000	841.166042592580	1004.869865919407	428.560122864132	1005.755525054728	1430.589485155264	229.183291510741	1119.587850869581	1366.320351801819	384.399039256958	1047.401279664898	1440.863493861757	563.189784907074	995.574950100739	1495.231791963467	383.894210303093	1074.762271355096	943.071558470092	534.308118335264	1048.815651169076	958.965822053003	261.383801187419	1117.289900802752	740.928784611866	518.296113971785	1042.780821547865	632.483729468930	591.344977008436	1122.835134463510	572.853265338810	517.954001546282	1116.918162263404	465.797549728937	542.481704371918	1112.940184859307	759.280291806969	285.981482830650	1034.292707520183	636.762154270227	226.619613766677	1130.345194729883	567.787570462714	282.952544483348	1137.472319413784	497.923981014026	289.883325515277	1114.593461991626	423.753757798482	282.341706519988	1028.704437739515	304.846775317911	234.432000648798	1090.772275528840	195.903667482291	301.025535891245	1041.746338959403	396.975373855954	550.813086755399	924.666748559022	354.625072337937	616.458519367571	910.903464046582	245.234783818559	567.176611352096	709.848694432288	173.404125271283	548.557776786744	880.533953676198	122.950720709067	578.507163244905	774.344421294372	114.668036216874	616.746537468844	953.863161569672	31.443504350696	598.499614272201	972.947213154961	38.328188422606	349.622363501978	1041.704582198235	35.291736032107	264.372041407653	1126.183445358357	96.952531384498	287.125223847176	1252.986372832759	45.683568587996	250.528439252670	963.838881786137	1080.402778848452	111.110769238687	1063.360829663200	837.249485316294	91.268514725423	1065.203816365318	1095.635738118843	692.104421289976	1243.054758835329	906.071765769172	686.341667641985	
93	33.452000000000	840.208032852859	1004.801714003927	424.658596069641	1007.642610517765	1430.547551859119	225.927574029691	1119.626618802680	1366.219574778927	382.460324658477	1045.563473873062	1440.793276527849	560.508253977581	995.799710894796	1495.327992740700	380.584264679347	1073.487567535169	943.444012135254	532.242602273757	1049.132368914286	959.174127237733	259.087385640603	1122.201479925031	744.211133149821	515.907752718923	1051.427860348092	633.833492727138	589.146134362618	1133.622227403669	576.130581729977	515.997407583114	1129.592690425185	467.956365773322	540.726030245842	1111.902484543997	758.685240705015	283.123340600706	1032.281174998004	636.779588854005	224.082157346150	1127.543106560862	567.119905773632	280.608921641384	1134.068509098568	497.322777069412	287.752286358865	1110.948601886310	423.164682599306	280.501833395221	1024.592772654545	304.417227913413	232.722410439020	1086.030278170631	195.562130534194	300.160666399546	1053.000521526084	399.435987003393	549.116596424541	934.692965969258	360.617554040542	614.981936344130	917.919732181839	251.486213301574	566.361705717755	715.439094669752	187.993368080505	547.957079328156	883.704236680627	128.848768210768	578.265853543109	776.872006359777	125.944013407195	616.250456041231	951.630475489107	31.047797719623	598.480229600728	967.556267998672	38.318992208209	349.495844197890	1036.293246161687	35.210117466686	264.191321335450	1120.831576338282	96.803866767343	286.930540513251	1247.657017330598	45.410805464842	250.458107914343	972.193836599505	1080.885771896791	104.434961842332	1078.699797690761	840.843105388076	82.692065450801	1055.870446319182	1094.796249987455	688.534277592543	1221.695912585903	893.986029090592	685.340846972189	
94	33.465500000000	839.195598097855	1004.748627642376	420.978504996568	1009.418661060910	1430.458282707041	222.923039494426	1119.559041432337	1366.113641804103	380.755422040117	1043.630269961699	1440.745809697622	558.034695972038	996.019638030936	1495.427532946954	377.526694362395	1072.180261411718	943.874405851816	530.389336581295	1049.314530296650	959.416123527392	256.993657290761	1126.768327886918	747.810337486025	513.448967873648	1059.804971624047	635.612549589289	586.917574743880	1143.910412220705	579.940161695924	513.866224336236	1141.978962082055	470.754162982547	538.672413263072	1110.775398366822	758.125705474847	280.431446331192	1030.159161969399	636.785079675388	221.767930479132	1124.697269122141	566.467520997327	278.424951043017	1130.636118768438	496.745388005921	285.821036459548	1107.271379091982	422.614185803544	278.839771189153	1020.450559644690	304.048480798015	231.173870061412	1081.280158477257	195.255841874543	299.373196912267	1064.206715496688	402.366002392918	547.193592479636	944.927682893388	366.656009210616	613.323841715826	925.437292262317	257.837087464254	565.261417705130	721.984762427251	201.792655231371	547.091099393724	887.857326850541	135.040887427146	577.752171202027	780.608646446035	136.937381277416	615.519357891721	950.806071387798	31.172231785736	598.233661380340	962.169067713001	38.320998051091	349.365301525524	1030.890584268678	35.148235940003	264.018845635494	1115.478500532146	96.683195012500	286.741704948935	1242.320296155872	45.183249015443	250.381438851933	980.750092387393	1081.495199685557	98.017330699254	1094.023353963591	844.723419761172	74.448559585482	1046.224855989981	1094.091211851740	684.972967484301	1199.577797644144	883.078207272671	684.162738369388	
